<svg width="35" height="37" viewBox="0 0 35 37" fill="none" xmlns="http://www.w3.org/2000/svg">
<path d="M11.2469 9.38623C10.6924 9.94081 9.79381 9.94233 9.23923 9.38623L7.26334 7.41034C6.70952 6.85576 6.71103 5.95721 7.26334 5.40188L12.2508 0.415937C12.8039 -0.138646 13.7024 -0.138646 14.257 0.415937L16.2336 2.39183C16.7867 2.94641 16.7867 3.84495 16.2336 4.39802L11.2469 9.38623Z" fill="white"/>
<path d="M23.0552 21.4157C22.5014 21.9681 21.6028 21.9681 21.049 21.4157L19.0723 19.4383C18.5178 18.8853 18.5178 17.986 19.0723 17.4314L24.0598 12.4439C24.6136 11.8909 25.5122 11.8894 26.0667 12.4439L28.0426 14.4198C28.5972 14.9744 28.5957 15.8729 28.0426 16.4275L23.0552 21.4157Z" fill="white"/>
<path d="M0.416077 21.8902L2.42151 19.8825C2.97761 19.3294 3.87388 19.3294 4.42771 19.8825L5.30731 20.7614L13.7965 12.2706L11.9578 10.4311L17.0588 5.33154L18.8984 7.17106L21.2409 9.51212L23.0396 11.3107L17.9392 16.4118L16.1383 14.614L7.65065 23.1032L8.44464 23.8979C8.99922 24.4502 9.00074 25.3495 8.44464 25.9041L6.43921 27.9103C5.88311 28.4664 4.98532 28.4664 4.43149 27.9103L0.416834 23.8972C-0.138506 23.3418 -0.138506 22.4448 0.416077 21.8902Z" fill="white"/>
<path d="M15.2434 27.9881C15.2434 27.0797 15.9798 26.3418 16.8897 26.3418H29.7451C30.6543 26.3418 31.3914 27.0797 31.3914 27.9881V30.6603H35V36.2584H11.8485V30.6603H15.2434V27.9881Z" fill="white"/>
</svg>
