<svg width="43" height="37" viewBox="0 0 43 37" fill="none" xmlns="http://www.w3.org/2000/svg">
<path id="Vector" d="M21.5898 5.69322C23.1155 5.64875 24.3271 4.44807 24.372 2.93609C24.4169 1.29071 23.0706 -0.0433895 21.4102 0.0010804C19.8845 0.0455503 18.6729 1.24624 18.628 2.75821C18.5831 4.4036 19.9294 5.73769 21.5898 5.69322ZM42.4117 22.7696H41.604L35.9049 11.8301C36.7126 11.7411 37.5204 11.4298 38.2384 11.1185C39.3154 10.6294 39.5397 9.20634 38.732 8.36141L38.6871 8.31694C38.1935 7.82777 37.4306 7.6499 36.7575 7.96118C36.1292 8.228 35.2317 8.53929 34.3791 8.53929C31.8661 8.53929 30.7442 5.69322 21.5 5.69322C12.2558 5.69322 11.1339 8.53929 8.62089 8.53929C7.72339 8.53929 6.87076 8.27247 6.24251 7.96118C5.56939 7.69437 4.80651 7.82777 4.31289 8.31694L4.26801 8.36141C3.46027 9.20634 3.68464 10.5849 4.76164 11.1185C5.47964 11.4743 6.28739 11.7411 7.09514 11.8301L1.39602 22.7696H0.588268C0.229268 22.7696 -0.0399819 23.0809 0.0048931 23.4367C0.498518 26.2828 4.13339 28.4618 8.57601 28.4618C13.0186 28.4618 16.6535 26.2828 17.1471 23.4367C17.192 23.0809 16.9228 22.7696 16.5638 22.7696H15.756L10.0569 11.8745C13.7815 11.5632 15.756 9.69551 18.628 9.69551V31.3079C17.0574 31.3079 15.756 32.5975 15.756 34.1539H12.5699C11.3134 34.1539 10.012 35.4436 10.012 37H32.988C32.988 35.4436 31.6866 34.1539 29.8019 34.1539H27.244C27.244 32.5975 25.9426 31.3079 24.372 31.3079V9.69551C27.244 9.69551 29.2185 11.5632 32.9431 11.8745L27.244 22.7696H26.4362C26.0772 22.7696 25.808 23.0809 25.8529 23.4367C26.3465 26.2828 29.9814 28.4618 34.424 28.4618C38.8666 28.4618 42.5015 26.2828 42.9951 23.4367C43.04 23.0809 42.7707 22.7696 42.4117 22.7696ZM12.884 22.7696H4.26801L8.57601 14.7651L12.884 22.7696ZM30.116 22.7696L34.424 14.7651L38.732 22.7696H30.116Z" fill="#D4CF9B"/>
</svg>
