<svg width="40" height="41" viewBox="0 0 40 41" fill="none" xmlns="http://www.w3.org/2000/svg">
<g id="Group 8">
<path id="Vector" fill-rule="evenodd" clip-rule="evenodd" d="M0 4.53401C0 2.02996 1.88307 0 4.20618 0H26.4605C28.7835 0 30.6666 2.02996 30.6666 4.53401V19.7256L30.6652 19.7271C27.4159 23.2206 20.6605 30.4863 19.6343 31.6007C18.3515 32.9936 18.0591 35.0474 18.0308 35.4642C18.0146 35.7014 17.9303 36.5485 17.8476 37.3777C17.7851 38.0052 17.7236 38.6226 17.6935 38.958C17.6532 39.4067 17.6825 39.7386 17.7549 40.0163H4.20618C1.88307 40.0163 0 37.9863 0 35.4823V4.53401ZM4.84164 9.03579C4.84164 8.03415 5.59491 7.22217 6.52413 7.22217H24.1416C25.0709 7.22217 25.8241 8.03415 25.8241 9.03579C25.8241 10.0373 25.0709 10.8493 24.1416 10.8493H6.52413C5.59491 10.8493 4.84164 10.0373 4.84164 9.03579ZM6.52413 14.5709C5.59491 14.5709 4.84164 15.3828 4.84164 16.3845C4.84164 17.3861 5.59491 18.1981 6.52413 18.1981H24.1416C25.0709 18.1981 25.8241 17.3861 25.8241 16.3845C25.8241 15.3828 25.0709 14.5709 24.1416 14.5709H6.52413ZM4.84164 23.7332C4.84164 22.7316 5.59491 21.9197 6.52413 21.9197H15.3105C16.2397 21.9197 16.993 22.7316 16.993 23.7332C16.993 24.7348 16.2397 25.5468 15.3105 25.5468H6.52413C5.59491 25.5468 4.84164 24.7348 4.84164 23.7332Z" fill="white"/>
<path id="Vector_2" d="M39.3029 19.4755C38.3735 18.28 36.8667 18.28 35.9373 19.4755L33.3333 22.8249L36.6989 27.1538L39.3029 23.8044C40.2322 22.609 40.2322 20.6708 39.3029 19.4755Z" fill="white"/>
<path id="Vector_3" d="M34.6667 28.4802L30.7362 24.2959L21.774 33.8372C21.2495 34.3954 20.8777 35.0953 20.6988 35.8617L20.0298 38.7252C19.8489 39.4997 20.5214 40.1933 21.2428 39.9762L23.8759 39.1839C24.5493 38.9812 25.1626 38.5982 25.6574 38.0714L34.6667 28.4802Z" fill="white"/>
</g>
</svg>
