<svg width="408" height="577" viewBox="0 0 408 577" fill="none" xmlns="http://www.w3.org/2000/svg">
<path d="M178.972 149.366C170.147 158.191 155.848 158.215 147.023 149.366L115.58 117.923C106.767 109.098 106.791 94.7988 115.58 85.9615L194.947 6.61892C203.748 -2.20631 218.047 -2.20631 226.872 6.61892L258.327 38.0618C267.128 46.887 267.128 61.1858 258.327 69.9869L178.972 149.366Z" fill="#878787" fill-opacity="0.22"/>
<path d="M366.883 340.796C358.07 349.585 343.771 349.585 334.958 340.796L303.503 309.329C294.677 300.527 294.677 286.217 303.503 277.391L382.869 198.025C391.683 189.224 405.981 189.199 414.807 198.025L446.249 229.468C455.075 238.293 455.051 252.592 446.249 261.417L366.883 340.796Z" fill="#878787" fill-opacity="0.22"/>
<path d="M6.61719 348.346L38.5303 316.397C47.3796 307.596 61.6422 307.596 70.4554 316.397L84.4528 330.382L219.544 195.267L190.283 165.994L271.458 84.843L300.731 114.116L338.009 151.37L366.631 179.991L285.468 261.167L256.81 232.557L121.743 367.648L134.378 380.295C143.203 389.084 143.227 403.395 134.378 412.22L102.465 444.145C93.6156 452.995 79.3288 452.995 70.5157 444.145L6.62924 380.283C-2.20804 371.446 -2.20804 357.171 6.61719 348.346Z" fill="#878787" fill-opacity="0.22"/>
<path d="M242.57 445.383C242.57 430.928 254.289 419.185 268.769 419.185H473.34C487.808 419.185 499.539 430.928 499.539 445.383V487.906H556.963V576.99H188.546V487.906H242.57V445.383Z" fill="#878787" fill-opacity="0.22"/>
</svg>
