<svg width="44" height="38" viewBox="0 0 44 38" fill="none" xmlns="http://www.w3.org/2000/svg">
<path id="Vector" d="M22.0918 5.84709C23.6531 5.80142 24.8929 4.56828 24.9388 3.01544C24.9847 1.32559 23.6071 -0.0445621 21.9082 0.0011096C20.3469 0.0467813 19.1071 1.27992 19.0612 2.83276C19.0153 4.52261 20.3929 5.89276 22.0918 5.84709ZM43.3981 23.385H42.5715L36.7399 12.1498C37.5664 12.0584 38.3929 11.7387 39.1276 11.419C40.2297 10.9167 40.4593 9.45516 39.6327 8.5874L39.5868 8.54173C39.0817 8.03934 38.3011 7.85665 37.6123 8.17635C36.9695 8.45038 36.0511 8.77008 35.1786 8.77008C32.6072 8.77008 31.4592 5.84709 22 5.84709C12.5408 5.84709 11.3928 8.77008 8.82137 8.77008C7.903 8.77008 7.03055 8.49605 6.38769 8.17635C5.69891 7.90232 4.91829 8.03934 4.41319 8.54173L4.36727 8.5874C3.54074 9.45516 3.77033 10.871 4.87238 11.419C5.60707 11.7844 6.43361 12.0584 7.26014 12.1498L1.42848 23.385H0.601948C0.2346 23.385 -0.0409117 23.7047 0.00500689 24.0701C0.510111 26.9931 4.22952 29.231 8.77545 29.231C13.3214 29.231 17.0408 26.9931 17.5459 24.0701C17.5918 23.7047 17.3163 23.385 16.949 23.385H16.1224L10.2908 12.1955C14.102 11.8758 16.1224 9.95755 19.0612 9.95755V32.154C17.4541 32.154 16.1224 33.4785 16.1224 35.077H12.8622C11.5765 35.077 10.2448 36.4015 10.2448 38H33.7551C33.7551 36.4015 32.4235 35.077 30.4949 35.077H27.8776C27.8776 33.4785 26.5459 32.154 24.9388 32.154V9.95755C27.8776 9.95755 29.898 11.8758 33.7092 12.1955L27.8776 23.385H27.051C26.6837 23.385 26.4082 23.7047 26.4541 24.0701C26.9592 26.9931 30.6786 29.231 35.2245 29.231C39.7705 29.231 43.4899 26.9931 43.995 24.0701C44.0409 23.7047 43.7654 23.385 43.3981 23.385ZM13.1836 23.385H4.36727L8.77545 15.1641L13.1836 23.385ZM30.8164 23.385L35.2245 15.1641L39.6327 23.385H30.8164Z" fill="#A08356"/>
</svg>
